PathFileType  4	(X/Y/Z) C:\Users\antoi\Documents\MyRepositories\mobilecap\ResultsAnalysis
DataRate	CameraRate	NumFrames	NumMarkers	Units	OrigDataRate	OrigDataStartFrame	OrigNumFrames
100.0	100.0	4	51	mm	100.0	1	1394
Frame#	Time	r_knee			r_shank_antsup			r_ankle			r_calc			r_5meta			r_toe			L_knee			L_shank_antsup			L_ankle			L_calc			L_5meta			L_toe			r_sh2			r_sh3			r_sh4			L_sh2			L_sh3			r_thigh1			r_thigh2			r_thigh3			r_thigh4			r_thigh5			L_thigh1			L_thigh2			L_thigh3			L_thigh4			r.ASIS			r.PSIS			L.ASIS			L.PSIS			C7			R_Shoulder			L_Shoulder			R_Sternum			L_Sternum			R_humerus			R_elbow_med			R_elbow_lat			R_forearm			R_wrist_radius			R_wrist_ulna			L_humerus			L_elbow_med			L_elbow_lat			L_forearm			L_wrist_radius			L_wrist_ulna			R_HJC			L_HJC			R_HJC_reg			L_HJC_reg			
		X1	Y1	Z1	X2	Y2	Z2	X3	Y3	Z3	X4	Y4	Z4	X5	Y5	Z5	X6	Y6	Z6	X7	Y7	Z7	X8	Y8	Z8	X9	Y9	Z9	X10	Y10	Z10	X11	Y11	Z11	X12	Y12	Z12	X13	Y13	Z13	X14	Y14	Z14	X15	Y15	Z15	X16	Y16	Z16	X17	Y17	Z17	X18	Y18	Z18	X19	Y19	Z19	X20	Y20	Z20	X21	Y21	Z21	X22	Y22	Z22	X23	Y23	Z23	X24	Y24	Z24	X25	Y25	Z25	X26	Y26	Z26	X27	Y27	Z27	X28	Y28	Z28	X29	Y29	Z29	X30	Y30	Z30	X31	Y31	Z31	X32	Y32	Z32	X33	Y33	Z33	X34	Y34	Z34	X35	Y35	Z35	X36	Y36	Z36	X37	Y37	Z37	X38	Y38	Z38	X39	Y39	Z39	X40	Y40	Z40	X41	Y41	Z41	X42	Y42	Z42	X43	Y43	Z43	X44	Y44	Z44	X45	Y45	Z45	X46	Y46	Z46	X47	Y47	Z47	X48	Y48	Z48	X49	Y49	Z49	X50	Y50	Z50	X51	Y51	Z51	

1	0.00000000	-197.92257	478.95770	-459.52914	-134.76177	415.49125	-471.51210	-259.36859	98.18049	-465.33879	-332.08102	64.08101	-496.89849	-158.09282	46.45127	-432.37247	-112.39204	70.02921	-490.33514	-222.38691	473.46757	-880.34417	-159.89224	397.56107	-888.68682	-249.05658	97.88612	-866.84296	-315.84923	61.68104	-827.00951	-141.04045	43.21843	-905.09912	-102.91629	66.93556	-848.47675	-175.49201	308.86822	-447.63860	-207.62546	439.73873	-443.68873	-244.77842	333.91541	-437.00430	-248.58694	412.38178	-891.86328	-258.45251	289.72694	-897.89740	-509.06201	551.55245	-487.78642	-399.35479	546.41259	-476.92913	-380.68554	488.06124	-443.19234	-518.32628	442.05749	-461.93251	-400.66502	435.61865	-454.89070	-492.89666	512.38885	-897.49621	-355.85111	520.35377	-893.28161	-491.19009	400.50929	-859.43073	-350.73042	413.72016	-867.81226	-518.67929	576.52697	-553.15026	-711.92040	585.49433	-617.57826	-540.04629	566.36964	-800.58866	-729.04072	586.14478	-712.79641	-661.49975	1007.15033	-700.58381	-563.50009	983.92538	-531.71836	-606.01809	966.09614	-876.42328	-522.57021	960.13695	-685.69164	-522.94292	957.07262	-728.24571	-579.58891	865.05744	-446.20076	-631.66669	648.89077	-457.24029	-635.71552	683.38769	-385.61870	-511.60393	739.40315	-399.05791	-395.33968	786.98961	-428.25132	-376.95713	760.26625	-415.40317	-610.27189	850.80445	-937.94951	-638.53946	619.44174	-870.12457	-657.71930	648.51426	-950.47078	-567.29662	703.15905	-953.69205	-428.44556	763.12388	-956.44281	-418.60080	731.20814	-967.17723	-582.58367	485.96313	-569.70819	-600.94766	482.12144	-775.32491	-572.60025	488.07128	-578.90336	-601.63115	489.17424	-740.36464	
2	0.01000000	-197.90544	478.91531	-459.51520	-134.76809	415.42890	-471.41225	-259.29307	98.19050	-465.21400	-332.06306	64.05941	-496.83654	-158.10674	46.40188	-432.34814	-112.40301	70.00003	-490.32511	-222.39652	473.46317	-880.33420	-159.90063	397.57385	-888.68677	-249.06120	97.88264	-866.85169	-315.83596	61.62836	-826.97440	-141.03532	43.30438	-905.20540	-102.91263	66.93293	-848.47085	-175.48510	308.89006	-447.58333	-207.71576	439.65946	-443.84166	-244.71130	334.02778	-436.98634	-248.61010	412.40891	-891.92515	-258.48072	289.68806	-897.87571	-508.73979	551.53278	-487.66500	-399.47354	546.29307	-476.70972	-380.68905	488.07614	-443.18409	-518.35818	442.12413	-461.92907	-400.65695	435.61566	-454.84206	-492.91999	512.39456	-897.48533	-355.87483	520.35797	-893.27802	-491.19280	400.51960	-859.44111	-350.73709	413.71274	-867.80519	-518.74192	576.48420	-553.15496	-711.97796	585.44531	-617.55407	-540.08968	566.47610	-800.77469	-729.20173	586.02535	-712.60427	-661.48858	1006.65682	-700.86824	-563.90462	983.71744	-531.59397	-606.22777	966.20324	-876.21114	-523.00719	960.11647	-685.49239	-522.90937	956.92359	-728.08115	-579.93285	864.88431	-445.94550	-630.69330	648.03804	-456.13196	-636.10360	683.01872	-385.81086	-512.10825	739.11247	-399.04612	-395.77068	786.64113	-428.36460	-377.34222	759.85470	-415.31809	-610.51064	850.87070	-937.87643	-638.97672	619.39909	-870.37256	-658.13585	648.67806	-950.64852	-567.59985	703.10798	-953.54185	-428.73228	763.17272	-956.33999	-418.94141	731.29095	-967.14164	-582.55023	485.90782	-569.77647	-601.02671	482.16765	-775.38494	-572.54657	488.13872	-578.81631	-601.81824	489.12429	-740.35059	
3	0.02000000	-197.89980	478.94886	-459.50807	-134.77832	415.42209	-471.34277	-259.25166	98.20053	-465.17952	-332.06247	64.06540	-496.84701	-158.12163	46.39403	-432.32872	-112.39451	69.99058	-490.32380	-222.42454	473.48446	-880.34244	-159.92838	397.56783	-888.64301	-249.06771	97.87794	-866.84631	-315.85078	61.59698	-826.97819	-141.03833	43.27932	-905.18552	-102.91500	66.93324	-848.47690	-175.51372	308.94001	-447.52930	-207.75204	439.64145	-443.73460	-244.73874	333.89983	-436.97490	-248.63383	412.39246	-891.88150	-258.49339	289.69730	-897.86975	-508.78210	551.49106	-487.65380	-399.51143	546.24030	-476.63266	-380.70869	488.07704	-443.19230	-518.39455	442.12293	-461.94352	-400.68171	435.58598	-454.84449	-492.94815	512.39193	-897.49098	-355.88545	520.36046	-893.26915	-491.20649	400.52120	-859.44206	-350.74825	413.70690	-867.79097	-518.79541	576.46461	-553.14611	-712.06862	585.39630	-617.55972	-540.14680	566.60554	-801.01202	-729.33838	585.92202	-712.48168	-661.72879	1006.40910	-700.76719	-564.29369	983.58047	-531.36608	-606.47965	966.24140	-875.96439	-523.41549	960.09262	-685.25697	-523.05323	956.90653	-727.88992	-580.30208	864.62601	-445.79772	-630.75157	647.62581	-455.83335	-636.54104	682.69271	-385.95437	-512.57293	738.70129	-399.17976	-396.20304	786.20675	-428.41673	-377.80112	759.41301	-415.26324	-610.82972	850.87033	-937.64133	-639.43536	619.54173	-870.31792	-658.54849	648.75380	-950.62925	-567.92493	703.06758	-953.44165	-429.04132	763.22153	-956.31547	-419.30336	731.28636	-967.08724	-582.52306	485.86793	-569.87801	-601.09263	482.23440	-775.48003	-572.53940	488.18009	-578.77196	-601.95318	489.07537	-740.44165	
4	0.03000000	-197.93003	478.98831	-459.51311	-134.80039	415.43093	-471.30399	-259.24450	98.20108	-465.20396	-332.07164	64.08949	-496.86398	-158.13824	46.39197	-432.32459	-112.38124	69.97300	-490.31764	-222.46067	473.52576	-880.35304	-159.96698	397.56439	-888.59064	-249.07613	97.86788	-866.83762	-315.86824	61.58316	-826.98600	-141.04368	43.24220	-905.16273	-102.92280	66.93606	-848.48877	-175.54228	308.96133	-447.49661	-207.75293	439.65253	-443.51785	-244.81020	333.66419	-436.96733	-248.65668	412.36981	-891.81721	-258.50117	289.71656	-897.87462	-508.94450	551.42713	-487.67336	-399.50225	546.23177	-476.64872	-380.73971	488.06748	-443.20428	-518.40006	442.08689	-461.94256	-400.71869	435.54201	-454.87570	-493.02253	512.44684	-897.51964	-355.88394	520.37257	-893.27947	-491.22273	400.51262	-859.43739	-350.76005	413.70707	-867.78130	-518.84099	576.49758	-553.14739	-712.16977	585.35216	-617.57667	-540.22580	566.68752	-801.09460	-729.41491	585.86725	-712.44299	-662.14782	1006.33976	-700.42635	-564.66661	983.48752	-531.02667	-606.81607	966.17435	-875.66141	-523.79185	960.06296	-685.03408	-523.53422	957.02888	-727.61190	-580.75370	864.29282	-445.68367	-631.80306	647.68612	-456.47885	-637.01936	682.43732	-385.97350	-512.99744	738.16864	-399.40754	-396.63431	785.71055	-428.42663	-378.28869	758.90454	-415.31346	-611.17896	850.84848	-937.32606	-639.92776	619.75390	-870.18924	-658.95864	648.81834	-950.57399	-568.27705	703.06929	-953.36281	-429.37452	763.22068	-956.27432	-419.66462	731.21278	-966.98539	-582.52921	485.87243	-569.92228	-601.13280	482.27574	-775.52189	-572.58453	488.19923	-578.78984	-601.98384	489.07733	-740.51722	
